<mxfile host="app.diagrams.net" modified="2023-05-02T11:41:33.560Z" agent="Mozilla/5.0 (Macintosh; Intel Mac OS X 10_15_7) AppleWebKit/605.1.15 (KHTML, like Gecko) Version/16.4.1 Safari/605.1.15" etag="bqomt8Q0jhKD6P9tgY7y" version="21.2.4">
  <diagram name="Страница 1" id="S75ySwjWjFwpnCnD7rlG">
    <mxGraphModel dx="1781" dy="647" grid="1" gridSize="10" guides="1" tooltips="1" connect="1" arrows="1" fold="1" page="1" pageScale="1" pageWidth="827" pageHeight="1169" math="0" shadow="0">
      <root>
        <mxCell id="0" />
        <mxCell id="1" parent="0" />
        <mxCell id="1d55eg8Ma25YniyTrXiD-32" style="edgeStyle=orthogonalEdgeStyle;rounded=0;orthogonalLoop=1;jettySize=auto;html=1;exitX=0.5;exitY=1;exitDx=0;exitDy=0;entryX=0.5;entryY=0;entryDx=0;entryDy=0;" edge="1" parent="1" source="1d55eg8Ma25YniyTrXiD-1" target="1d55eg8Ma25YniyTrXiD-2">
          <mxGeometry relative="1" as="geometry" />
        </mxCell>
        <mxCell id="1d55eg8Ma25YniyTrXiD-1" value="Begin" style="rounded=1;whiteSpace=wrap;html=1;" vertex="1" parent="1">
          <mxGeometry x="50" width="120" height="60" as="geometry" />
        </mxCell>
        <mxCell id="1d55eg8Ma25YniyTrXiD-33" style="edgeStyle=orthogonalEdgeStyle;rounded=0;orthogonalLoop=1;jettySize=auto;html=1;exitX=0.5;exitY=1;exitDx=0;exitDy=0;entryX=0.5;entryY=0;entryDx=0;entryDy=0;" edge="1" parent="1" source="1d55eg8Ma25YniyTrXiD-2" target="1d55eg8Ma25YniyTrXiD-4">
          <mxGeometry relative="1" as="geometry" />
        </mxCell>
        <mxCell id="1d55eg8Ma25YniyTrXiD-2" value="string[] = array1&lt;br&gt;string[] = array2&lt;br&gt;int count = 0" style="shape=parallelogram;perimeter=parallelogramPerimeter;whiteSpace=wrap;html=1;fixedSize=1;" vertex="1" parent="1">
          <mxGeometry x="-5" y="110" width="230" height="70" as="geometry" />
        </mxCell>
        <mxCell id="1d55eg8Ma25YniyTrXiD-34" value="YES" style="edgeStyle=orthogonalEdgeStyle;rounded=0;orthogonalLoop=1;jettySize=auto;html=1;exitX=0.5;exitY=1;exitDx=0;exitDy=0;entryX=0.5;entryY=0;entryDx=0;entryDy=0;" edge="1" parent="1" source="1d55eg8Ma25YniyTrXiD-4" target="1d55eg8Ma25YniyTrXiD-22">
          <mxGeometry relative="1" as="geometry" />
        </mxCell>
        <mxCell id="1d55eg8Ma25YniyTrXiD-37" style="edgeStyle=orthogonalEdgeStyle;rounded=0;orthogonalLoop=1;jettySize=auto;html=1;exitX=1;exitY=0.5;exitDx=0;exitDy=0;entryX=0;entryY=0.5;entryDx=0;entryDy=0;" edge="1" parent="1" source="1d55eg8Ma25YniyTrXiD-4" target="1d55eg8Ma25YniyTrXiD-27">
          <mxGeometry relative="1" as="geometry" />
        </mxCell>
        <mxCell id="1d55eg8Ma25YniyTrXiD-39" value="NO" style="edgeStyle=orthogonalEdgeStyle;rounded=0;orthogonalLoop=1;jettySize=auto;html=1;" edge="1" parent="1" source="1d55eg8Ma25YniyTrXiD-4" target="1d55eg8Ma25YniyTrXiD-27">
          <mxGeometry relative="1" as="geometry">
            <Array as="points">
              <mxPoint x="270" y="305" />
              <mxPoint x="270" y="305" />
            </Array>
          </mxGeometry>
        </mxCell>
        <mxCell id="1d55eg8Ma25YniyTrXiD-4" value="if (array1[I].Length &amp;lt;= 3)" style="rhombus;whiteSpace=wrap;html=1;" vertex="1" parent="1">
          <mxGeometry x="-10" y="230" width="240" height="150" as="geometry" />
        </mxCell>
        <mxCell id="1d55eg8Ma25YniyTrXiD-36" style="edgeStyle=orthogonalEdgeStyle;rounded=0;orthogonalLoop=1;jettySize=auto;html=1;exitX=1;exitY=0.5;exitDx=0;exitDy=0;entryX=0;entryY=0.5;entryDx=0;entryDy=0;" edge="1" parent="1" source="1d55eg8Ma25YniyTrXiD-6" target="1d55eg8Ma25YniyTrXiD-4">
          <mxGeometry relative="1" as="geometry" />
        </mxCell>
        <mxCell id="1d55eg8Ma25YniyTrXiD-6" value="&amp;nbsp;array2[count] = array1[i]&lt;br&gt;count++;" style="rounded=0;whiteSpace=wrap;html=1;" vertex="1" parent="1">
          <mxGeometry x="-300" y="270" width="200" height="70" as="geometry" />
        </mxCell>
        <mxCell id="1d55eg8Ma25YniyTrXiD-35" style="edgeStyle=orthogonalEdgeStyle;rounded=0;orthogonalLoop=1;jettySize=auto;html=1;exitX=0;exitY=0.5;exitDx=0;exitDy=0;entryX=0.417;entryY=1.048;entryDx=0;entryDy=0;entryPerimeter=0;" edge="1" parent="1" source="1d55eg8Ma25YniyTrXiD-22" target="1d55eg8Ma25YniyTrXiD-6">
          <mxGeometry relative="1" as="geometry" />
        </mxCell>
        <mxCell id="1d55eg8Ma25YniyTrXiD-22" value="for (int i = 0; i &amp;lt; array1.Length; i++)" style="rounded=0;whiteSpace=wrap;html=1;" vertex="1" parent="1">
          <mxGeometry x="-20" y="460" width="260" height="60" as="geometry" />
        </mxCell>
        <mxCell id="1d55eg8Ma25YniyTrXiD-38" style="edgeStyle=orthogonalEdgeStyle;rounded=0;orthogonalLoop=1;jettySize=auto;html=1;exitX=1;exitY=0.5;exitDx=0;exitDy=0;entryX=0;entryY=0.5;entryDx=0;entryDy=0;" edge="1" parent="1" source="1d55eg8Ma25YniyTrXiD-27" target="1d55eg8Ma25YniyTrXiD-28">
          <mxGeometry relative="1" as="geometry" />
        </mxCell>
        <mxCell id="1d55eg8Ma25YniyTrXiD-27" value="print string[] = array 2" style="shape=parallelogram;perimeter=parallelogramPerimeter;whiteSpace=wrap;html=1;fixedSize=1;" vertex="1" parent="1">
          <mxGeometry x="300" y="262.5" width="180" height="85" as="geometry" />
        </mxCell>
        <mxCell id="1d55eg8Ma25YniyTrXiD-28" value="END" style="rounded=1;whiteSpace=wrap;html=1;" vertex="1" parent="1">
          <mxGeometry x="550" y="275" width="120" height="60" as="geometry" />
        </mxCell>
      </root>
    </mxGraphModel>
  </diagram>
</mxfile>
